{"title":"Prisoners 2013 BRRip 720p x264 AAC - PRiSTiNE [P2PDL]","uid":9299714,"size":1030833262,"categoryP":"video","categoryS":"hd___movies","magnet":"?xt=urn:btih:7c6aba40d6020d68734961887a3377fdec2bc7bb&amp;dn=Prisoners+2013+BRRip+720p+x264+AAC+-+PRiSTiNE+%5BP2PDL%5D&amp;tr=udp%3A%2F%2Ftracker.openbittorrent.com%3A80&amp;tr=udp%3A%2F%2Fopen.demonii.com%3A1337&amp;tr=udp%3A%2F%2Ftracker.coppersurfer.tk%3A6969&amp;tr=udp%3A%2F%2Fexodus.desync.com%3A6969","seeders":0,"leechers":0,"uploader":"Vitamin_X","files":-1,"time":1386222177,"description":"_______ Visit us at our Semi Public Bittorrent Community ________\n  &lt;a href=&quot;\nhttp://p2pdl.com&quot; rel=&quot;nofollow&quot; target=&quot;_NEW&quot;&gt;\nhttp://p2pdl.com&lt;/a&gt;  _____________________________ &lt;a href=&quot; http://p2pdl.com&quot; rel=&quot;nofollow&quot; target=&quot;_NEW&quot;&gt; http://p2pdl.com&lt;/a&gt;\n\n\n\nPrisoners 2013 BRRip 720p x264 AAC - PRiSTiNE\n\n\nGenre: Crime | Drama | Thriller\nIMDb: &lt;a href=&quot; http://www.imdb.com/title/tt1392214/&quot; rel=&quot;nofollow&quot; target=&quot;_NEW&quot;&gt; http://www.imdb.com/title/tt1392214/&lt;/a&gt;\n\n\nFormat                         : MPEG-4\nFile size                      : 974 MiB\nDuration                       : 2h 33mn\nOverall bit rate               : 889 Kbps\n\nVideo\nFormat                         : AVC\nBit rate                       : 809 Kbps\nWidth                          : 1 280 pixels\nHeight                         : 720 pixels\nDisplay aspect ratio           : 16:9\nFrame rate mode                : Constant\nFrame rate                     : 23.976 fps\nBit depth                      : 10 bits\nStream size                    : 883 MiB (91%)\nWriting library                : x264 core 140 r2377\n\nAudio\nFormat                         : AAC\nBit rate mode                  : Variable\nBit rate                       : 79.9 Kbps\nChannel(s)                     : 2 channels\nChannel positions              : Front: L R\nSampling rate                  : 48.0 KHz\nStream size                    : 87.5 MiB (9%)\nLanguage                       : English\n\nSubtitle                       : Yes(English)\n\nSource                         : 720p.BluRay.x264-SPARKS\n &lt;a href=&quot;\nhttp://someimage.com/725U4zK&quot; rel=&quot;nofollow&quot; target=&quot;_NEW&quot;&gt;\nhttp://someimage.com/725U4zK&lt;/a&gt; &lt;a href=&quot;\nhttp://someimage.com/aFrK2rl&quot; rel=&quot;nofollow&quot; target=&quot;_NEW&quot;&gt;\nhttp://someimage.com/aFrK2rl&lt;/a&gt; &lt;a href=&quot;\nhttp://someimage.com/Y2Vw2o0&quot; rel=&quot;nofollow&quot; target=&quot;_NEW&quot;&gt;\nhttp://someimage.com/Y2Vw2o0&lt;/a&gt; &lt;a href=&quot;\nhttp://someimage.com/LX4cgdX&quot; rel=&quot;nofollow&quot; target=&quot;_NEW&quot;&gt;\nhttp://someimage.com/LX4cgdX&lt;/a&gt; &lt;a href=&quot;\nhttp://someimage.com/TBNRuJB&quot; rel=&quot;nofollow&quot; target=&quot;_NEW&quot;&gt;\nhttp://someimage.com/TBNRuJB&lt;/a&gt; &lt;a href=&quot;\nhttp://someimage.com/p8bpDt0&quot; rel=&quot;nofollow&quot; target=&quot;_NEW&quot;&gt;\nhttp://someimage.com/p8bpDt0&lt;/a&gt; &lt;a href=&quot;\nhttp://someimage.com/wLckDXH&quot; rel=&quot;nofollow&quot; target=&quot;_NEW&quot;&gt;\nhttp://someimage.com/wLckDXH&lt;/a&gt; &lt;a href=&quot;\nhttp://someimage.com/wbx7Zr9&quot; rel=&quot;nofollow&quot; target=&quot;_NEW&quot;&gt;\nhttp://someimage.com/wbx7Zr9&lt;/a&gt;\n\n\n----------------------------------------------------------------------------------------------------\n\n\nEncoded using revolutionary 10bit encoding, which enables us to provide you more crispier \nand sharper images at small sizes, just make sure you follow our instructions without a fault.\nRecommend to you to use latest version of VLC player. Install K-Lite Codec Pack or shark007 codecs\nin case of any kind of problem in playback (For non-VLC Media Player users). Alternatively, install\nCore AVC codecs, the fastest decoder that there is coupled with Community Center Codec Pack and play\non Windows Media Player Classic. Check sample to be sure.\nEnjoy!\n\nEncoder Notes:Looking For Early Access To Anything You Can Provide DVDScr, R5, DVDR, BluRay, Direct\nAudio, Music Releases and Seedboxes. We require dedicated servers, so as to do more \nand fast releases of movies.\nIf You Got anything to offer please contact us at &quot;&lt;a class=&quot;__cf_email__&quot; href=&quot;/cdn-cgi/l/email-protection&quot; data-cfemail=&quot;bccccedbfcd4c9cfd492dfd3d1&quot;&gt;[email&amp;#160;protected]&lt;/a&gt;&lt;script data-cfhash='f9e31' type=&quot;text/javascript&quot;&gt;\n/* &lt;![CDATA[ */!function(){try{var t=&quot;currentScript&quot;in document?document.currentScript:function(){for(var t=document.getElementsByTagName(&quot;script&quot;),e=t.length;e--;)if(t[e].getAttribute(&quot;data-cfhash&quot;))return t[e]}();if(t&amp;&amp;t.previousSibling){var e,r,n,i,c=t.previousSibling,a=c.getAttribute(&quot;data-cfemail&quot;);if(a){for(e=&quot;&quot;,r=parseInt(a.substr(0,2),16),n=2;a.length-n;n+=2)i=parseInt(a.substr(n,2),16)^r,e+=String.fromCharCode(i);e=document.createTextNode(e),c.parentNode.replaceChild(e,c)}t.parentNode.removeChild(t);}}catch(u){}}()/* ]]&gt; */&lt;/script&gt;&quot;.\n\nFacebook Fan Page:  \nSearch P2PDL on FB and don't forget to hit like!!!\n\nSupport us, please consider a donation.\n\nFor more of our team uploads visit @             &lt;a href=&quot;\nhttp://thepiratebay.se/user/ValidusVyto/&quot; rel=&quot;nofollow&quot; target=&quot;_NEW&quot;&gt;\nhttp://thepiratebay.se/user/ValidusVyto/&lt;/a&gt;\t","torrent":{"xt":"urn:btih:7c6aba40d6020d68734961887a3377fdec2bc7bb","amp;dn":"Prisoners+2013+BRRip+720p+x264+AAC+-+PRiSTiNE+%5BP2PDL%5D","amp;tr":["udp%3A%2F%2Ftracker.openbittorrent.com%3A80","udp%3A%2F%2Fopen.demonii.com%3A1337","udp%3A%2F%2Ftracker.coppersurfer.tk%3A6969","udp%3A%2F%2Fexodus.desync.com%3A6969"],"infoHash":"7c6aba40d6020d68734961887a3377fdec2bc7bb","infoHashBuffer":{"type":"Buffer","data":[124,106,186,64,214,2,13,104,115,73,97,136,122,51,119,253,236,43,199,187]},"announce":[],"urlList":[]}}